<?xml version="1.0" encoding="UTF-8"?> <svg xmlns="http://www.w3.org/2000/svg" width="58" height="51" viewBox="0 0 58 51" fill="none"> <path d="M36.0613 10.3926H37.8727C37.9579 10.3795 38.0355 10.3364 38.0916 10.2712C38.1477 10.2059 38.1785 10.1227 38.1785 10.0367C38.1785 9.95067 38.1477 9.8675 38.0916 9.80222C38.0355 9.73694 37.9579 9.69386 37.8727 9.68078H36.0613C35.9762 9.69386 35.8985 9.73694 35.8424 9.80222C35.7863 9.8675 35.7555 9.95067 35.7555 10.0367C35.7555 10.1227 35.7863 10.2059 35.8424 10.2712C35.8985 10.3364 35.9762 10.3795 36.0613 10.3926Z" fill="white"></path> <path d="M36.0613 11.5985H37.8727C37.9662 11.5985 38.0558 11.5615 38.1218 11.4955C38.1879 11.4295 38.225 11.3401 38.225 11.2468C38.225 11.1535 38.1879 11.064 38.1218 10.9981C38.0558 10.9321 37.9662 10.8951 37.8727 10.8951H36.0613C35.9679 10.8951 35.8783 10.9321 35.8122 10.9981C35.7462 11.064 35.7091 11.1535 35.7091 11.2468C35.7091 11.3401 35.7462 11.4295 35.8122 11.4955C35.8783 11.5615 35.9679 11.5985 36.0613 11.5985Z" fill="white"></path> <path d="M36.0613 12.8128H37.8727C37.9662 12.8128 38.0558 12.7758 38.1218 12.7098C38.1879 12.6438 38.225 12.5544 38.225 12.4611C38.225 12.3678 38.1879 12.2783 38.1218 12.2124C38.0558 12.1464 37.9662 12.1094 37.8727 12.1094H36.0613C35.9679 12.1094 35.8783 12.1464 35.8122 12.2124C35.7462 12.2783 35.7091 12.3678 35.7091 12.4611C35.7091 12.5544 35.7462 12.6438 35.8122 12.7098C35.8783 12.7758 35.9679 12.8128 36.0613 12.8128Z" fill="white"></path> <path d="M33.0758 17.0251H41.1518V17.8626C41.1526 17.9322 41.1737 18.0002 41.2124 18.0581C41.2511 18.1161 41.3058 18.1616 41.3699 18.1892H41.504C41.5505 18.1898 41.5967 18.1813 41.6399 18.164C41.6831 18.1468 41.7224 18.1212 41.7556 18.0887L42.1079 17.7369L42.4601 18.0887C42.5094 18.1389 42.5726 18.1732 42.6416 18.1872C42.7106 18.2012 42.7822 18.1943 42.8472 18.1672C42.9122 18.1402 42.9676 18.0943 43.0062 18.0355C43.0448 17.9767 43.0649 17.9077 43.0639 17.8374V17H45.1186C45.1648 17 45.2106 16.9909 45.2534 16.9732C45.2961 16.9556 45.3349 16.9296 45.3676 16.897C45.4003 16.8643 45.4263 16.8255 45.444 16.7829C45.4617 16.7402 45.4708 16.6945 45.4708 16.6483V9.39606C45.4708 9.30278 45.4337 9.21331 45.3676 9.14735C45.3016 9.08139 45.212 9.04433 45.1186 9.04433H44.2799V7.57882C44.2799 7.48553 44.2428 7.39607 44.1768 7.33011C44.1107 7.26415 44.0211 7.22709 43.9277 7.22709H40.3048C40.0722 7.22702 39.8426 7.27976 39.6334 7.38131C39.4242 7.48287 39.2408 7.63059 39.0972 7.8133C38.9552 7.63077 38.7734 7.48305 38.5655 7.38145C38.3577 7.27985 38.1293 7.22705 37.8979 7.22709H34.2834C34.2364 7.22598 34.1897 7.23425 34.146 7.25142C34.1023 7.2686 34.0625 7.29433 34.0289 7.3271C33.9953 7.35988 33.9686 7.39903 33.9504 7.44226C33.9321 7.48548 33.9228 7.53192 33.9228 7.57882V9.04433H33.0841C32.9907 9.04433 32.9011 9.08139 32.8351 9.14735C32.769 9.21331 32.7319 9.30278 32.7319 9.39606V16.6734C32.7319 16.7652 32.7679 16.8535 32.8321 16.9192C32.8964 16.9849 32.9838 17.0229 33.0758 17.0251ZM39.5332 16.3217C39.5987 16.1719 39.7067 16.0445 39.8438 15.9552C39.9809 15.8659 40.1411 15.8186 40.3048 15.8192H41.1434V16.3217H39.5332ZM42.3594 17.0335C42.3262 17.001 42.2869 16.9754 42.2437 16.9581C42.2005 16.9409 42.1544 16.9323 42.1079 16.933C42.0625 16.9315 42.0173 16.9397 41.9754 16.957C41.9334 16.9743 41.8957 17.0004 41.8647 17.0335V15.8192H42.3594V17.0335ZM44.7663 9.74778V16.3217H43.0891V15.8192H43.9277C44.0211 15.8192 44.1107 15.7822 44.1768 15.7162C44.2428 15.6502 44.2799 15.5608 44.2799 15.4675V9.74778H44.7663ZM34.6356 7.93054H37.8979C38.1203 7.93054 38.3336 8.01877 38.4909 8.17582C38.6482 8.33287 38.7365 8.54588 38.7365 8.76798C38.7365 8.86126 38.7737 8.95073 38.8397 9.01669C38.9058 9.08265 38.9954 9.1197 39.0888 9.1197C39.1822 9.1197 39.2718 9.08265 39.3378 9.01669C39.4039 8.95073 39.441 8.86126 39.441 8.76798C39.441 8.54588 39.5294 8.33287 39.6866 8.17582C39.8439 8.01877 40.0572 7.93054 40.2796 7.93054H43.609V15.0739H40.3048C40.0725 15.0756 39.8435 15.1292 39.6346 15.2306C39.4256 15.332 39.242 15.4788 39.0972 15.6601C38.954 15.4789 38.7719 15.3322 38.5643 15.2308C38.3567 15.1293 38.129 15.0757 37.8979 15.0739H34.6356V7.93054ZM33.428 9.74778H33.9228V15.4675C33.9228 15.5144 33.9321 15.5608 33.9504 15.604C33.9686 15.6473 33.9953 15.6864 34.0289 15.7192C34.0625 15.752 34.1023 15.7777 34.146 15.7949C34.1897 15.8121 34.2364 15.8203 34.2834 15.8192H37.8979C38.0616 15.8186 38.2219 15.8659 38.359 15.9552C38.496 16.0445 38.604 16.1719 38.6695 16.3217H33.428V9.74778Z" fill="white"></path> <path d="M24.8907 34.268C24.79 34.0251 24.6391 33.9581 24.3707 34.0837L23.1044 34.8458C22.7186 34.8458 22.2658 34.8458 22.2154 34.8458L21.8045 34.6783C21.453 34.4706 21.0665 34.3287 20.664 34.2596C20.3468 34.2947 20.0423 34.4037 19.775 34.5778C18.8797 34.7957 17.949 34.8271 17.0411 34.6699C16.932 34.5611 15.5735 33.7739 15.5735 33.7739C15.5279 33.751 15.4777 33.7392 15.4267 33.7392C15.3757 33.7392 15.3255 33.751 15.2799 33.7739C15.2297 33.7893 15.1838 33.8163 15.1459 33.8526C15.1081 33.889 15.0793 33.9337 15.0619 33.9832L13.4685 38.2374C13.45 38.2797 13.4405 38.3253 13.4405 38.3714C13.4405 38.4175 13.45 38.4631 13.4685 38.5054C13.5088 38.5908 13.5811 38.657 13.6697 38.6896C13.6697 38.6896 15.0451 39.2172 15.1961 39.2172C15.2787 39.2148 15.3582 39.1854 15.4225 39.1335L15.6909 39.2926C15.6648 39.3681 15.6506 39.4472 15.6489 39.5271C15.6483 39.6393 15.6702 39.7505 15.7134 39.8541C15.7566 39.9576 15.8203 40.0515 15.9005 40.13C16.0471 40.28 16.2445 40.3696 16.454 40.3813C16.4814 40.488 16.5296 40.5884 16.5959 40.6765C16.6621 40.7646 16.7452 40.8388 16.8402 40.8949C16.9353 40.9509 17.0405 40.9876 17.1498 41.0029C17.2591 41.0183 17.3703 41.0119 17.4772 40.9842C17.5838 41.1529 17.7406 41.2839 17.9256 41.359C18.1106 41.4341 18.3145 41.4495 18.5087 41.4029C18.6299 41.5827 18.8108 41.7139 19.0194 41.7736C19.228 41.8334 19.451 41.8178 19.6492 41.7295L19.8421 41.9138C20.0103 42.081 20.2379 42.1749 20.4753 42.1749C20.7126 42.1749 20.9403 42.081 21.1084 41.9138C21.1809 41.8456 21.2381 41.7628 21.2762 41.6709C21.3574 41.6976 21.4422 41.7117 21.5278 41.7128C21.6445 41.7129 21.7602 41.69 21.8681 41.6455C21.976 41.6009 22.0741 41.5356 22.1567 41.4532C22.2225 41.3856 22.2789 41.3096 22.3245 41.2271C22.4296 41.2641 22.5401 41.2839 22.6515 41.2857C22.8301 41.2854 23.0047 41.233 23.1537 41.1347C23.3028 41.0365 23.4197 40.8968 23.4902 40.733H23.6495C23.8273 40.74 24.0031 40.6936 24.1542 40.5997C24.3053 40.5059 24.4247 40.3689 24.4969 40.2065C24.5692 40.0442 24.591 39.8639 24.5595 39.689C24.5281 39.5141 24.4448 39.3527 24.3204 39.2256L24.4127 39.1754C24.4474 39.228 24.4931 39.2724 24.5466 39.3057C24.6002 39.3389 24.6604 39.3602 24.723 39.368C25.231 39.2298 25.7296 39.0591 26.2157 38.8571C26.2607 38.8433 26.3023 38.8202 26.3377 38.7893C26.3732 38.7584 26.4017 38.7203 26.4215 38.6777C26.4413 38.635 26.4519 38.5887 26.4525 38.5417C26.4532 38.4947 26.4439 38.4481 26.4254 38.4049L24.8907 34.268ZM15.6154 34.6029L16.4121 35.1389C16.1584 36.2958 15.7134 37.4024 15.0954 38.4133L14.2568 38.1286L15.6154 34.6029ZM19.1964 41.0345C19.1705 41.0087 19.1521 40.9764 19.1433 40.941C19.1344 40.9055 19.1354 40.8684 19.146 40.8335C19.1715 40.7569 19.1705 40.674 19.1431 40.5981C19.1157 40.5221 19.0636 40.4576 18.9951 40.4148C18.9274 40.3726 18.8475 40.3546 18.7682 40.3638C18.689 40.3729 18.6153 40.4086 18.559 40.465L18.3745 40.6409C18.3478 40.6675 18.3116 40.6824 18.2739 40.6824C18.2361 40.6824 18.1999 40.6675 18.1732 40.6409C18.1502 40.6174 18.1373 40.5858 18.1373 40.5529C18.1373 40.5201 18.1502 40.4885 18.1732 40.465C18.2241 40.3922 18.2462 40.3032 18.2354 40.2151C18.2245 40.127 18.1815 40.046 18.1145 39.9877C18.0472 39.9288 17.9608 39.8963 17.8713 39.8963C17.7818 39.8963 17.6954 39.9288 17.6281 39.9877L17.4268 40.1887C17.4001 40.2153 17.3639 40.2302 17.3262 40.2302C17.2885 40.2302 17.2523 40.2153 17.2256 40.1887C17.2037 40.1629 17.1917 40.1303 17.1917 40.0965C17.1917 40.0628 17.2037 40.0302 17.2256 40.0044C17.2799 39.9344 17.3042 39.8457 17.2932 39.7578C17.2822 39.67 17.2367 39.59 17.1669 39.5355C17.0999 39.4724 17.0114 39.4374 16.9195 39.4374C16.8275 39.4374 16.739 39.4724 16.6721 39.5355C16.6423 39.5592 16.6053 39.5722 16.5672 39.5722C16.5291 39.5722 16.4922 39.5592 16.4624 39.5355C16.4399 39.5052 16.4278 39.4685 16.4278 39.4308C16.4278 39.3931 16.4399 39.3564 16.4624 39.3261L16.9404 38.8488C16.953 38.8345 16.9685 38.8231 16.9859 38.8153C17.0032 38.8074 17.022 38.8034 17.0411 38.8034C17.0601 38.8034 17.0789 38.8074 17.0963 38.8153C17.1136 38.8231 17.1291 38.8345 17.1417 38.8488C17.1987 38.9039 17.2724 38.9387 17.3512 38.9478C17.4301 38.9569 17.5097 38.9397 17.5778 38.899C17.5946 38.9473 17.6235 38.9905 17.6617 39.0246C17.6944 39.058 17.7336 39.0846 17.7768 39.1027C17.82 39.1209 17.8664 39.1302 17.9132 39.1302C17.9601 39.1302 18.0065 39.1209 18.0497 39.1027C18.0929 39.0846 18.132 39.058 18.1648 39.0246C18.1774 39.0104 18.1929 38.9989 18.2103 38.9911C18.2276 38.9833 18.2464 38.9793 18.2655 38.9793C18.2845 38.9793 18.3033 38.9833 18.3207 38.9911C18.338 38.9989 18.3535 39.0104 18.3661 39.0246C18.3998 39.0573 18.4397 39.0829 18.4835 39.1C18.4309 39.1685 18.4054 39.2539 18.4118 39.34C18.4182 39.4261 18.4561 39.5069 18.5183 39.5669C18.5804 39.6269 18.6625 39.6619 18.7489 39.6654C18.8353 39.6689 18.9199 39.6405 18.9867 39.5857C19.0164 39.5619 19.0534 39.549 19.0915 39.549C19.1296 39.549 19.1666 39.5619 19.1964 39.5857C19.2134 39.6087 19.2226 39.6366 19.2226 39.6653C19.2226 39.6939 19.2134 39.7218 19.1964 39.7448C19.1563 39.8191 19.1435 39.905 19.1604 39.9876C19.1773 40.0703 19.2226 40.1444 19.2886 40.197C19.3487 40.2432 19.4224 40.2682 19.4983 40.2682C19.5741 40.2682 19.6478 40.2432 19.7079 40.197C19.7474 40.1743 19.7923 40.1623 19.8379 40.1623C19.8835 40.1623 19.9284 40.1743 19.9679 40.197C19.9968 40.2293 20.0127 40.271 20.0127 40.3143C20.0127 40.3575 19.9968 40.3993 19.9679 40.4315L19.4479 40.9424C19.4479 40.9424 19.2886 41.1266 19.1964 41.0345ZM20.6472 41.3611C20.6307 41.3791 20.6106 41.3935 20.5882 41.4033C20.5659 41.4132 20.5417 41.4183 20.5172 41.4183C20.4927 41.4183 20.4686 41.4132 20.4462 41.4033C20.4238 41.3935 20.4037 41.3791 20.3872 41.3611L20.2279 41.2103L20.4879 40.9424L20.664 41.135C20.6808 41.1518 20.6939 41.1721 20.7023 41.1944C20.7106 41.2167 20.7141 41.2406 20.7126 41.2644C20.711 41.2882 20.7043 41.3113 20.693 41.3323C20.6818 41.3533 20.6661 41.3717 20.6472 41.3862V41.3611ZM23.8172 39.9374C23.8007 39.9555 23.7807 39.9699 23.7583 39.9797C23.7359 39.9896 23.7117 39.9946 23.6872 39.9946C23.6628 39.9946 23.6386 39.9896 23.6162 39.9797C23.5938 39.9699 23.5738 39.9555 23.5573 39.9374L21.9722 38.3798C21.9055 38.3132 21.815 38.2757 21.7206 38.2757C21.6263 38.2757 21.5358 38.3132 21.4691 38.3798C21.4023 38.4464 21.3648 38.5368 21.3648 38.631C21.3648 38.7253 21.4023 38.8156 21.4691 38.8823L22.8193 40.2389C22.8536 40.2734 22.8728 40.3201 22.8728 40.3687C22.8728 40.4173 22.8536 40.464 22.8193 40.4985C22.7824 40.5315 22.7346 40.5497 22.6851 40.5497C22.6356 40.5497 22.5878 40.5315 22.5509 40.4985L20.9659 38.9158C20.8985 38.8503 20.8083 38.8136 20.7143 38.8136C20.6203 38.8136 20.53 38.8503 20.4627 38.9158C20.4292 38.9485 20.4026 38.9876 20.3845 39.0307C20.3663 39.0739 20.357 39.1202 20.357 39.167C20.357 39.2138 20.3663 39.2601 20.3845 39.3032C20.4026 39.3464 20.4292 39.3855 20.4627 39.4182L21.6787 40.666C21.713 40.7005 21.7323 40.7472 21.7323 40.7958C21.7323 40.8444 21.713 40.8911 21.6787 40.9256C21.6432 40.958 21.5968 40.9759 21.5487 40.9759C21.5006 40.9759 21.4543 40.958 21.4187 40.9256L20.6807 40.1719C20.6381 39.9916 20.5368 39.8304 20.3926 39.7137C20.2484 39.597 20.0696 39.5314 19.884 39.5271C19.8394 39.3897 19.765 39.2639 19.666 39.1586C19.5709 39.0632 19.4542 38.992 19.3257 38.9512C19.1973 38.9104 19.0608 38.9011 18.928 38.9241C18.9414 38.8663 18.94 38.8061 18.9239 38.749C18.9078 38.6919 18.8775 38.6398 18.8357 38.5975C18.6912 38.4479 18.4961 38.3574 18.2884 38.3434C18.0807 38.3295 17.8752 38.3932 17.712 38.5222C17.6951 38.4739 17.6663 38.4306 17.6281 38.3965C17.5499 38.3155 17.4561 38.251 17.3523 38.207C17.2486 38.163 17.137 38.1403 17.0243 38.1403C16.9116 38.1403 16.8 38.163 16.6962 38.207C16.5925 38.251 16.4987 38.3155 16.4205 38.3965L16.1521 38.6645L15.8586 38.497C16.4171 37.5181 16.8296 36.4629 17.083 35.365C17.3765 35.4069 18.45 35.4488 18.5254 35.4488C18.4436 35.6712 18.4038 35.9069 18.408 36.1438C18.2023 36.4243 18.0199 36.7212 17.8629 37.0315C17.8336 37.1489 17.8403 37.2723 17.8822 37.3858C17.9241 37.4993 17.9992 37.5976 18.0977 37.668C18.2837 37.8146 18.5151 37.8916 18.7519 37.8857C19.0205 37.8779 19.2828 37.803 19.515 37.668C19.7121 37.5714 19.8856 37.4329 20.0232 37.2622C20.1609 37.0915 20.2594 36.8927 20.3117 36.6798H20.7898L23.8172 39.7029C23.8496 39.7384 23.8676 39.7847 23.8676 39.8327C23.8676 39.8808 23.8496 39.9271 23.8172 39.9626V39.9374ZM23.8172 38.6813L21.1671 36.035C21.132 36.0004 21.0899 35.9735 21.0437 35.9562C20.9974 35.9389 20.9481 35.9315 20.8988 35.9345C20.6556 35.9345 19.9595 35.9847 19.9595 35.9847C19.8632 35.9972 19.7751 36.0456 19.713 36.1201C19.6508 36.1946 19.619 36.2898 19.6241 36.3867C19.622 36.5303 19.577 36.6701 19.4948 36.788C19.4126 36.9058 19.297 36.9965 19.1628 37.0483C19.0792 37.1088 18.9824 37.1487 18.8804 37.1647C18.7783 37.1807 18.6739 37.1724 18.5758 37.1404C18.668 36.9896 19.0035 36.5207 19.0286 36.4872C19.1031 36.2835 19.1373 36.0674 19.1293 35.8507C20.2614 35.0133 20.6053 34.9463 20.6807 34.9463C20.9713 35.0319 21.2523 35.1469 21.5194 35.2896C21.6955 35.3922 21.8844 35.471 22.0813 35.5241C22.3606 35.5384 22.6405 35.5384 22.9199 35.5241C23.1523 36.5802 23.5335 37.5981 24.0521 38.5473L23.8172 38.6813ZM24.8739 38.564C24.2724 37.5697 23.8389 36.4832 23.5908 35.3483L24.3623 34.8877L25.6455 38.2961C25.4274 38.4049 25.159 38.5222 24.8823 38.5892L24.8739 38.564Z" fill="white"></path> <path d="M13.2756 9.41281C13.5524 9.41281 14.2316 9.04434 14.7768 8.93547V16.6399C14.7774 16.6971 14.7914 16.7534 14.8176 16.8043C14.8438 16.8551 14.8815 16.8992 14.9277 16.933C14.979 16.9616 15.0367 16.9766 15.0954 16.9766C15.1542 16.9766 15.2119 16.9616 15.2632 16.933L18.1648 15.7773L21.0749 16.933C21.1254 16.9594 21.1815 16.9732 21.2384 16.9732C21.2954 16.9732 21.3515 16.9594 21.402 16.933C21.4508 16.9011 21.4908 16.8577 21.5187 16.8065C21.5465 16.7554 21.5611 16.6981 21.5613 16.6399V8.93547C22.9014 9.11835 24.1643 9.66919 25.2094 10.5266C25.2839 10.5912 25.3791 10.6268 25.4777 10.6271C25.5784 10.6174 25.6715 10.5694 25.7377 10.4931C26.1695 9.8981 26.4067 9.18448 26.417 8.44976C26.4055 7.71782 26.1683 7.00721 25.7377 6.41478C25.7073 6.37429 25.6682 6.3412 25.6231 6.318C25.5781 6.29479 25.5284 6.28207 25.4777 6.28079C25.3785 6.27775 25.2821 6.31385 25.2094 6.38129C23.7289 7.55803 21.8756 8.16698 19.9847 8.09803H15.7328C14.915 7.95674 14.1058 7.76942 13.3091 7.53695C13.182 7.53232 13.0552 7.55379 12.9366 7.60002C12.8181 7.64625 12.7103 7.71626 12.6199 7.80573C12.5295 7.8952 12.4585 8.00223 12.4111 8.12021C12.3638 8.23818 12.3412 8.36459 12.3447 8.49163C12.3412 8.61427 12.3629 8.73633 12.4086 8.85025C12.4542 8.96416 12.5228 9.0675 12.6101 9.15386C12.6973 9.24023 12.8014 9.30777 12.9159 9.35232C13.0304 9.39686 13.1528 9.41745 13.2756 9.41281ZM15.4812 13.6L20.8485 11.364V11.8498L15.4812 14.0857V13.6ZM20.8485 10.5852L15.4812 12.8212V9.63892C16.2201 10.2964 17.1752 10.6597 18.1648 10.6597C19.1545 10.6597 20.1096 10.2964 20.8485 9.63892V10.5852ZM18.3326 15.1325C18.2463 15.0989 18.1505 15.0989 18.0642 15.1325L15.5483 16.1458V14.8394L20.9156 12.6035V16.1123L18.3326 15.1325ZM25.4107 7.20198C25.6236 7.5961 25.7386 8.03551 25.7461 8.48326C25.7399 8.93119 25.6248 9.37091 25.4107 9.76454C24.5803 9.15444 23.641 8.70819 22.6432 8.44976C23.6268 8.19756 24.5543 7.76292 25.3771 7.16848L25.4107 7.20198ZM20.6472 8.87685C20.3381 9.2222 19.9594 9.49849 19.536 9.68765C19.1125 9.87682 18.6539 9.9746 18.19 9.9746C17.7261 9.9746 17.2675 9.87682 16.8441 9.68765C16.4206 9.49849 16.042 9.2222 15.7328 8.87685H20.6472ZM13.2421 8.26552C13.4197 8.36716 13.6082 8.44862 13.8039 8.50838C13.6037 8.56304 13.4118 8.64475 13.2337 8.75124C13.0995 8.75124 13.0911 8.61725 13.0911 8.5C13.0689 8.4467 13.0687 8.38676 13.0908 8.33336C13.1128 8.27996 13.1551 8.23749 13.2085 8.21528L13.2421 8.26552Z" fill="white"></path> <path d="M10.3068 20.0232V5.45172C15.9746 3.80772 21.8201 2.85173 27.7169 2.60443V20.0232H28.4213V2.58768H29.6038V20.0232H30.2999V2.60443C36.1928 2.83658 42.0345 3.79289 47.6932 5.45172V20.0232H48.3892V5.18374C48.3888 5.10836 48.3641 5.03511 48.3188 4.9748C48.2735 4.91449 48.21 4.87031 48.1377 4.84877C40.6319 2.79704 34.7195 1.88424 29.0671 1.88424C23.4147 1.88424 17.2675 2.83054 9.87074 4.84877C9.79751 4.86998 9.73289 4.91384 9.68618 4.97402C9.63947 5.03421 9.61306 5.10763 9.61076 5.18374V20.0232H10.3068Z" fill="white"></path> <path d="M47.6932 30.9852C47.6261 40.6074 40.1455 47.801 30.2999 48.3956V30.9852H29.6038V48.3956H28.4213V30.9852H27.7169V48.3621C17.9133 47.734 10.3991 40.5571 10.3152 30.9852H9.61076C9.70301 41.403 18.2152 49.1409 29.0671 49.1409C39.919 49.1409 48.3557 41.403 48.3557 30.9852H47.6932Z" fill="white"></path> <path d="M54.7545 27.0995L58 21.2374H52.574V19.6714H50.3181V3.29951C50.3171 3.22304 50.2912 3.14898 50.2443 3.08853C50.1974 3.02809 50.132 2.98455 50.0581 2.96453C43.2248 1.04612 36.1652 0.0491034 29.0671 0C21.9385 0.0467086 14.8481 1.0437 7.98381 2.96453C7.9099 2.98455 7.84453 3.02809 7.79762 3.08853C7.75071 3.14898 7.7248 3.22304 7.72383 3.29951V19.6714H5.42597V21.2709H0L3.24552 27.133L0 32.9197H7.83285C8.91469 43.2118 17.8462 51 29.0671 51C40.288 51 49.1021 43.2118 50.1671 32.9197H58L54.7545 27.0995ZM8.42828 3.56749C15.152 1.71135 22.0913 0.748372 29.0671 0.703448C36.001 0.754922 42.898 1.71788 49.5801 3.56749V19.6714H8.42828V3.56749ZM6.12204 20.3665H51.878V30.6167H6.12204V20.3665ZM1.19086 32.2246L4.04222 27.0995L1.19086 21.9744H5.42597V31.3118H7.7406C7.7406 31.6133 7.7406 31.9232 7.7406 32.2246H1.19086ZM29.0671 50.2966C17.6617 50.2966 8.70503 41.9975 8.43667 31.3118H49.5298C49.3034 41.9975 40.397 50.2966 29.0671 50.2966ZM50.2594 31.3118H52.574V21.9744H56.8175L53.9578 27.0995L56.8175 32.2246H50.2175C50.2426 31.9232 50.251 31.6133 50.2594 31.3118Z" fill="white"></path> <path d="M50.2761 18.4571H49.5801V18.9596H50.2761V18.4571Z" fill="white"></path> <path d="M35.1388 38.6143C35.5603 38.6143 35.902 38.2731 35.902 37.8522C35.902 37.4313 35.5603 37.0901 35.1388 37.0901C34.7173 37.0901 34.3757 37.4313 34.3757 37.8522C34.3757 38.2731 34.7173 38.6143 35.1388 38.6143Z" fill="white"></path> <path d="M38.812 35.097C39.215 35.097 39.5417 34.7708 39.5417 34.3685C39.5417 33.9661 39.215 33.6399 38.812 33.6399C38.4091 33.6399 38.0824 33.9661 38.0824 34.3685C38.0824 34.7708 38.4091 35.097 38.812 35.097Z" fill="white"></path> <path d="M40.8667 37.8522C41.0519 37.8522 41.2021 37.7022 41.2021 37.5172C41.2021 37.3322 41.0519 37.1823 40.8667 37.1823C40.6814 37.1823 40.5312 37.3322 40.5312 37.5172C40.5312 37.7022 40.6814 37.8522 40.8667 37.8522Z" fill="white"></path> <path d="M33.6125 40.532C33.7746 40.532 33.906 40.4008 33.906 40.2389C33.906 40.077 33.7746 39.9458 33.6125 39.9458C33.4504 39.9458 33.319 40.077 33.319 40.2389C33.319 40.4008 33.4504 40.532 33.6125 40.532Z" fill="white"></path> <path d="M38.6443 42.1483C38.811 42.1483 38.9462 42.0133 38.9462 41.8468C38.9462 41.6803 38.811 41.5453 38.6443 41.5453C38.4776 41.5453 38.3424 41.6803 38.3424 41.8468C38.3424 42.0133 38.4776 42.1483 38.6443 42.1483Z" fill="white"></path> <path d="M35.9607 44.0074C36.4146 44.0074 36.7825 43.64 36.7825 43.1867C36.7825 42.7334 36.4146 42.366 35.9607 42.366C35.5068 42.366 35.1388 42.7334 35.1388 43.1867C35.1388 43.64 35.5068 44.0074 35.9607 44.0074Z" fill="white"></path> <path d="M41.8227 41.5453C42.1655 41.5453 42.4433 41.2679 42.4433 40.9256C42.4433 40.5834 42.1655 40.3059 41.8227 40.3059C41.48 40.3059 41.2022 40.5834 41.2022 40.9256C41.2022 41.2679 41.48 41.5453 41.8227 41.5453Z" fill="white"></path> <path d="M38.2921 40.6158C37.9832 40.6174 37.6808 40.5275 37.4232 40.3573C37.1656 40.1872 36.9643 39.9445 36.845 39.66C36.7256 39.3756 36.6935 39.0621 36.7528 38.7594C36.812 38.4567 36.9599 38.1784 37.1777 37.9597C37.3955 37.741 37.6735 37.5918 37.9763 37.5311C38.2791 37.4703 38.5931 37.5006 38.8787 37.6183C39.1642 37.7359 39.4083 37.9356 39.5801 38.1919C39.7518 38.4482 39.8435 38.7497 39.8435 39.0581C39.8435 39.4698 39.6804 39.8647 39.3896 40.1566C39.0989 40.4485 38.7043 40.6135 38.2921 40.6158ZM38.2921 38.1034C38.1063 38.1034 37.9247 38.1585 37.7702 38.2615C37.6158 38.3646 37.4954 38.5111 37.4243 38.6824C37.3532 38.8538 37.3346 39.0424 37.3708 39.2244C37.4071 39.4063 37.4965 39.5734 37.6279 39.7046C37.7593 39.8358 37.9266 39.9251 38.1088 39.9613C38.291 39.9975 38.4799 39.9789 38.6515 39.9079C38.8231 39.8369 38.9698 39.7167 39.073 39.5625C39.1763 39.4082 39.2313 39.2269 39.2313 39.0414C39.2269 38.7955 39.126 38.5613 38.9504 38.389C38.7747 38.2167 38.5383 38.1202 38.2921 38.1202V38.1034Z" fill="white"></path> <path d="M37.3168 39.9698L35.6562 42.9381L36.1467 43.2117L37.8073 40.2435L37.3168 39.9698Z" fill="white"></path> <path d="M41.9485 41.4364L39.0468 39.6527L39.3404 39.1754L42.242 40.9591L41.9485 41.4364Z" fill="white"></path> <path d="M35.1067 37.7541L34.9489 38.2926L36.9691 38.8829L37.1269 38.3444L35.1067 37.7541Z" fill="white"></path> <path d="M38.6527 37.8773L38.0992 37.802L38.594 34.1172L39.1559 34.1926L38.6527 37.8773Z" fill="white"></path> <path d="M40.8992 37.1334L39.2564 38.2401L39.5711 38.7058L41.2138 37.5991L40.8992 37.1334Z" fill="white"></path> <path d="M38.4514 41.9389L38.2501 40.264L38.8036 40.1887L39.0049 41.8719L38.4514 41.9389Z" fill="white"></path> <path d="M36.8374 39.3241L33.5052 40.0229L33.6207 40.572L36.9528 39.8732L36.8374 39.3241Z" fill="white"></path> <path d="M40.2545 22.0833V23.7581H39.6339C39.4959 23.4584 39.4217 23.1333 39.4158 22.8034H37.2606V25.0562H39.2984V25.7345H37.2606V28.1212H39.5668C39.5728 27.7724 39.6559 27.4293 39.81 27.1163H40.4054V28.8414H35.7007V28.3305C35.9206 28.2003 36.1577 28.1017 36.4051 28.0374V22.8956C36.1558 22.8332 35.9179 22.7314 35.7007 22.5941V22.0833H40.2545ZM30.8115 22.0833V22.6108C30.597 22.7458 30.3619 22.8448 30.1154 22.9039V25.1232H31.1805L32.7068 22.7616C32.479 22.8673 32.223 22.8966 31.9772 22.8453V22.0833H34.2163V22.6108C33.9942 22.7445 33.7542 22.846 33.5035 22.9123L31.8262 25.4246L33.5454 28.1044H34.2666V28.6906C34.1701 28.7696 34.0589 28.8287 33.9395 28.8646C33.8201 28.9005 33.6947 28.9126 33.5706 28.9C33.3586 28.8996 33.1516 28.8365 32.9755 28.7188C32.7994 28.6011 32.6621 28.4339 32.581 28.2384L31.0798 25.8182H30.1154V28.1882C30.3575 28.0711 30.6303 28.0331 30.8953 28.0793V28.8414H28.5639V28.3305C28.7818 28.2024 29.0159 28.1038 29.26 28.0374V22.7448C29.0471 22.8594 28.8005 22.895 28.5639 22.8453V22.0833H30.8115ZM25.5364 28.2217C25.7806 28.1116 26.0513 28.0739 26.3164 28.1128V28.8749H23.985V28.364C24.2046 28.2393 24.4383 28.141 24.681 28.0709V22.7867C24.4682 22.9013 24.2216 22.9369 23.985 22.8872V22.1335H26.2241V22.6108C26.0113 22.7412 25.7792 22.8372 25.5364 22.8956V28.2217ZM18.2906 28.0039V22.7448C18.0894 22.8286 17.7875 22.9458 17.5946 22.8453V22.0833H19.8421V22.6108C19.6262 22.743 19.3915 22.8418 19.146 22.9039V28.1379H21.1504C21.1621 27.7611 21.2416 27.3895 21.3852 27.0409H22.0058V28.8581H17.6113V28.3473C17.83 28.2206 18.0639 28.1221 18.3074 28.0542" fill="white"></path> </svg> 