<?xml version="1.0" encoding="UTF-8"?> <svg xmlns="http://www.w3.org/2000/svg" viewBox="0 0 69.16 60.9"> <defs> <style>.cls-1{fill:#fff;}</style> </defs> <g id="Layer_2" data-name="Layer 2"> <g id="Layer_1-2" data-name="Layer 1"> <path class="cls-1" d="M43,12.41h2.16a.43.43,0,0,0,0-.85H43a.43.43,0,0,0,0,.85Z"></path> <path class="cls-1" d="M43,13.85h2.16a.42.42,0,0,0,.42-.42.42.42,0,0,0-.42-.42H43a.42.42,0,0,0-.42.42A.42.42,0,0,0,43,13.85Z"></path> <path class="cls-1" d="M43,15.3h2.16a.42.42,0,0,0,0-.84H43a.42.42,0,1,0,0,.84Z"></path> <path class="cls-1" d="M39.44,20.33h9.63v1a.43.43,0,0,0,.26.39l.16,0a.42.42,0,0,0,.3-.12l.42-.42.42.42a.42.42,0,0,0,.72-.3v-1H53.8a.42.42,0,0,0,.42-.42V11.22a.42.42,0,0,0-.42-.42h-1V9.05a.42.42,0,0,0-.42-.42H48.06a1.83,1.83,0,0,0-1.44.7,1.81,1.81,0,0,0-1.43-.7H40.88a.42.42,0,0,0-.43.42V10.8h-1a.42.42,0,0,0-.42.42v8.69A.42.42,0,0,0,39.44,20.33Zm7.7-.84a1,1,0,0,1,.92-.6h1v.6Zm3.37.85a.42.42,0,0,0-.3-.12.38.38,0,0,0-.29.12V18.89h.59Zm2.87-8.7v7.85h-2v-.6h1a.42.42,0,0,0,.42-.42V11.64ZM41.3,9.47h3.89a1,1,0,0,1,1,1,.42.42,0,1,0,.84,0,1,1,0,0,1,1-1H52V18H48.06a1.86,1.86,0,0,0-1.44.7,1.84,1.84,0,0,0-1.43-.7H41.3Zm-1.44,2.17h.59v6.83a.42.42,0,0,0,.43.42h4.31a1,1,0,0,1,.92.6H39.86Z"></path> <path class="cls-1" d="M29.68,40.92c-.12-.29-.3-.37-.62-.22l-1.51.91c-.46,0-1,0-1.06,0L26,41.41a4,4,0,0,0-1.36-.5,2.43,2.43,0,0,0-1.06.38,8,8,0,0,1-3.26.11c-.13-.13-1.75-1.07-1.75-1.07a.39.39,0,0,0-.35,0,.4.4,0,0,0-.26.25l-1.9,5.08a.4.4,0,0,0,0,.32.43.43,0,0,0,.24.22s1.64.63,1.82.63a.45.45,0,0,0,.27-.1l.32.19a.92.92,0,0,0-.05.28,1,1,0,0,0,.3.72,1,1,0,0,0,.66.3,1,1,0,0,0,1.22.72,1.14,1.14,0,0,0,1.23.5,1.1,1.1,0,0,0,1.36.39l.23.22a1.07,1.07,0,0,0,1.51,0,.84.84,0,0,0,.2-.29,1,1,0,0,0,.3.05,1.06,1.06,0,0,0,.75-.31,1.26,1.26,0,0,0,.2-.27,1.23,1.23,0,0,0,.39.07,1.09,1.09,0,0,0,1-.66l.19,0A1.06,1.06,0,0,0,29,46.84l.11-.06a.52.52,0,0,0,.37.23,14.67,14.67,0,0,0,1.78-.61.4.4,0,0,0,.25-.54Zm-11.06.4.95.64A12.73,12.73,0,0,1,18,45.87l-1-.34ZM22.89,49a.24.24,0,0,1-.06-.24.43.43,0,0,0-.18-.5.42.42,0,0,0-.52.06l-.22.21a.17.17,0,0,1-.24,0,.15.15,0,0,1,0-.21.43.43,0,0,0-.07-.57.44.44,0,0,0-.58,0l-.24.24a.17.17,0,0,1-.24,0,.17.17,0,0,1,0-.22.4.4,0,0,0-.07-.56.43.43,0,0,0-.59,0,.2.2,0,0,1-.25,0,.21.21,0,0,1,0-.25l.57-.57a.16.16,0,0,1,.24,0,.43.43,0,0,0,.52.06.36.36,0,0,0,.1.15.42.42,0,0,0,.6,0,.16.16,0,0,1,.24,0,.42.42,0,0,0,.14.09.42.42,0,0,0,.6.58.2.2,0,0,1,.25,0,.16.16,0,0,1,0,.19A.43.43,0,0,0,23,48a.41.41,0,0,0,.5,0,.31.31,0,0,1,.31,0,.21.21,0,0,1,0,.28l-.62.61S23,49.11,22.89,49Zm1.73.39a.21.21,0,0,1-.31,0l-.19-.18.31-.32.21.23A.2.2,0,0,1,24.62,49.42Zm3.78-1.7a.21.21,0,0,1-.31,0L26.2,45.83a.42.42,0,1,0-.6.6l1.61,1.62h0a.22.22,0,0,1,0,.31.24.24,0,0,1-.32,0L25,46.47a.43.43,0,0,0-.6,0,.42.42,0,0,0,0,.6l1.45,1.49a.22.22,0,0,1,0,.31.23.23,0,0,1-.31,0l-.88-.9a1,1,0,0,0-.95-.77,1.17,1.17,0,0,0-.26-.44,1,1,0,0,0-.88-.28.42.42,0,0,0-.11-.39A1,1,0,0,0,21.12,46a.36.36,0,0,0-.1-.15,1,1,0,0,0-1.44,0l-.32.32-.35-.2a13.83,13.83,0,0,0,1.46-3.74c.35.05,1.63.1,1.72.1a2.29,2.29,0,0,0-.14.83,7.57,7.57,0,0,0-.65,1.06.72.72,0,0,0,.28.76,1.21,1.21,0,0,0,.78.26,1.92,1.92,0,0,0,.91-.26,1.79,1.79,0,0,0,.95-1.18l.57,0,3.61,3.61A.23.23,0,0,1,28.4,47.72Zm0-1.5-3.16-3.16a.42.42,0,0,0-.32-.12c-.29,0-1.12.06-1.12.06a.46.46,0,0,0-.4.48.86.86,0,0,1-.55.79.78.78,0,0,1-.7.11c.11-.18.51-.74.54-.78a2,2,0,0,0,.12-.76c1.35-1,1.76-1.08,1.85-1.08a5.29,5.29,0,0,1,1,.41,2.76,2.76,0,0,0,.67.28,9.77,9.77,0,0,0,1,0,13.66,13.66,0,0,0,1.35,3.61Zm1.26-.14a12.64,12.64,0,0,1-1.53-3.84l.92-.55,1.53,4.07C30.32,45.86,30,46,29.67,46.08Z"></path> <path class="cls-1" d="M15.83,11.24c.33,0,1.14-.44,1.79-.57v9.2a.44.44,0,0,0,.18.35.41.41,0,0,0,.4,0l3.46-1.38,3.47,1.38a.42.42,0,0,0,.39,0,.42.42,0,0,0,.19-.35v-9.2a8.71,8.71,0,0,1,4.35,1.9.49.49,0,0,0,.32.12.47.47,0,0,0,.31-.16,4.26,4.26,0,0,0,.81-2.44,4.25,4.25,0,0,0-.81-2.43.4.4,0,0,0-.31-.16.45.45,0,0,0-.32.12,9.45,9.45,0,0,1-6.23,2.05H18.76A26.27,26.27,0,0,1,15.87,9a1.11,1.11,0,0,0-1.15,1.14A1.07,1.07,0,0,0,15.83,11.24Zm2.63,5,6.4-2.67v.58l-6.4,2.67Zm6.4-3.6-6.4,2.67v-3.8a4.81,4.81,0,0,0,6.4,0Zm-3,5.43a.44.44,0,0,0-.32,0l-3,1.21V17.72l6.4-2.67v4.19Zm8.44-9.47a3.34,3.34,0,0,1,.4,1.53,3.3,3.3,0,0,1-.4,1.53A9.66,9.66,0,0,0,27,10.09,9.66,9.66,0,0,0,30.26,8.56Zm-5.68,2a3.93,3.93,0,0,1-5.86,0Zm-8.83-.73a3.27,3.27,0,0,0,.67.29,2.72,2.72,0,0,0-.68.29c-.16,0-.17-.16-.17-.3A.26.26,0,0,1,15.75,9.81Z"></path> <line class="cls-1" x1="45.31" y1="47.44" x2="45.61" y2="47.44"></line> <line class="cls-1" x1="45.46" y1="47.09" x2="45.46" y2="47.54"></line> <path class="cls-1" d="M12.29,23.91V6.51a87.6,87.6,0,0,1,20.76-3.4v20.8h.84V3.09H35.3V23.91h.83V3.11a85.61,85.61,0,0,1,20.74,3.4v17.4h.83V6.19a.42.42,0,0,0-.3-.4c-8.95-2.45-16-3.54-22.74-3.54S20.59,3.38,11.77,5.79a.43.43,0,0,0-.31.4V23.91Z"></path> <path class="cls-1" d="M56.87,37c-.08,11.49-9,20.08-20.74,20.79V37H35.3V57.79l-.64,0-.77,0V37h-.84V57.75C21.36,57,12.4,48.43,12.3,37h-.84c.11,12.44,10.26,21.68,23.2,21.68s23-9.24,23-21.68Z"></path> <path class="cls-1" d="M65.29,32.36l3.87-7H62.69V23.49H60V3.94a.42.42,0,0,0-.31-.4A94.91,94.91,0,0,0,34.66,0,95.49,95.49,0,0,0,9.52,3.54a.42.42,0,0,0-.31.4V23.49H6.47V25.4H0l3.87,7L0,39.31H9.34C10.63,51.6,21.28,60.9,34.66,60.9s23.89-9.3,25.16-21.59h9.34ZM10.05,4.26A94.65,94.65,0,0,1,34.66.84,94.19,94.19,0,0,1,59.12,4.26V23.49H10.05ZM7.3,24.32H61.86V36.56H7.3ZM1.42,38.48l3.4-6.12-3.4-6.12H6.47V37.39H9.23c0,.36,0,.73,0,1.09ZM34.66,60.06c-13.6,0-24.28-9.91-24.6-22.67h49C58.79,50.15,48.17,60.06,34.66,60.06ZM59.93,37.39h2.76V26.24h5.06l-3.41,6.12,3.41,6.12H59.88C59.91,38.12,59.92,37.75,59.93,37.39Z"></path> <rect class="cls-1" x="59.12" y="22.04" width="0.83" height="0.6"></rect> <circle class="cls-1" cx="41.9" cy="45.2" r="0.91"></circle> <circle class="cls-1" cx="46.28" cy="41.04" r="0.87"></circle> <circle class="cls-1" cx="48.73" cy="44.8" r="0.4"></circle> <circle class="cls-1" cx="40.08" cy="48.05" r="0.35"></circle> <circle class="cls-1" cx="46.08" cy="49.97" r="0.36"></circle> <circle class="cls-1" cx="42.88" cy="51.57" r="0.98"></circle> <circle class="cls-1" cx="49.87" cy="48.87" r="0.74"></circle> <path class="cls-1" d="M45.66,48.5a1.86,1.86,0,1,1,1.85-1.86A1.86,1.86,0,0,1,45.66,48.5Zm0-3a1.12,1.12,0,1,0,1.12,1.12A1.12,1.12,0,0,0,45.66,45.52Z"></path> <rect class="cls-1" x="41.77" y="49.33" width="4.06" height="0.67" transform="translate(-20.92 63.68) rotate(-60.81)"></rect> <polygon class="cls-1" points="50.02 49.48 46.56 47.35 46.91 46.78 50.37 48.91 50.02 49.48"></polygon> <rect class="cls-1" x="42.64" y="44.51" width="0.67" height="2.51" transform="matrix(0.28, -0.96, 0.96, 0.28, -13.02, 74.15)"></rect> <polygon class="cls-1" points="46.09 45.23 45.43 45.14 46.02 40.74 46.69 40.83 46.09 45.23"></polygon> <rect class="cls-1" x="46.69" y="45.12" width="2.36" height="0.67" transform="translate(-17.21 34.36) rotate(-33.85)"></rect> <polygon class="cls-1" points="45.85 50.08 45.61 48.08 46.27 47.99 46.51 50 45.85 50.08"></polygon> <rect class="cls-1" x="39.98" y="47.37" width="4.06" height="0.67" transform="translate(-8.91 9.65) rotate(-11.86)"></rect> <path class="cls-1" d="M42.64,26.37H48v2h-.74A2.85,2.85,0,0,1,47,27.23H44.43v2.69h2.43v.81H44.43v2.85h2.75a2.83,2.83,0,0,1,.29-1.2h.71v2.06H42.57v-.61a3.25,3.25,0,0,1,.84-.35V27.34a2.88,2.88,0,0,1-.84-.36v-.61Zm-8.51,0h2.61V27a2.77,2.77,0,0,1-.83.35V30h1.27L39,27.18a1.39,1.39,0,0,1-.87.1v-.91H40.8V27a3.27,3.27,0,0,1-.85.36l-2,3L40,33.56h.86v.7a1.13,1.13,0,0,1-.83.25,1.28,1.28,0,0,1-1.18-.79l-1.79-2.89H35.91v2.83a1.53,1.53,0,0,1,.93-.13v.91H34.06v-.61a3.39,3.39,0,0,1,.83-.35V27.16a1.22,1.22,0,0,1-.83.12v-.91Zm-3.68,1v6.33a1.67,1.67,0,0,1,.93-.13v.91H28.6v-.61a3.83,3.83,0,0,1,.83-.35V27.21a1.22,1.22,0,0,1-.83.12v-.9h2.67V27a2.84,2.84,0,0,1-.82.34m-8.64,6.1V27.16c-.24.1-.6.24-.83.12v-.91h2.68V27a3,3,0,0,1-.83.35v6.25h2.39a3.75,3.75,0,0,1,.28-1.31h.74v2.17H21v-.61a3.57,3.57,0,0,1,.83-.35"></path> </g> </g> </svg> 